<?xml version="1.0" standalone="no"?>
<!DOCTYPE svg PUBLIC "-//W3C//DTD SVG 20010904//EN"
 "http://www.w3.org/TR/2001/REC-SVG-20010904/DTD/svg10.dtd">
<svg version="1.0" xmlns="http://www.w3.org/2000/svg"
 width="360.000000pt" height="360.000000pt" viewBox="0 0 360.000000 360.000000"
 preserveAspectRatio="xMidYMid meet">
<metadata>
Created by potrace 1.14, written by Peter Selinger 2001-2017
</metadata>
<g transform="translate(0.000000,360.000000) scale(0.100000,-0.100000)"
fill="#000000" stroke="none">
<path d="M1940 3406 c0 -2 8 -10 18 -17 15 -13 16 -12 3 4 -13 16 -21 21 -21
13z"/>
<path d="M1595 3381 c-3 -5 -2 -12 3 -15 5 -3 9 1 9 9 0 17 -3 19 -12 6z"/>
<path d="M2015 3380 c-3 -5 -1 -10 4 -10 6 0 11 5 11 10 0 6 -2 10 -4 10 -3 0
-8 -4 -11 -10z"/>
<path d="M1435 3360 c3 -5 8 -10 11 -10 2 0 4 5 4 10 0 6 -5 10 -11 10 -5 0
-7 -4 -4 -10z"/>
<path d="M1470 3361 c0 -6 4 -13 10 -16 6 -3 7 1 4 9 -7 18 -14 21 -14 7z"/>
<path d="M1651 3356 c-15 -18 -59 -26 -65 -12 -3 8 -7 7 -13 -1 -5 -7 -29 -15
-54 -17 -24 -2 -52 -7 -61 -11 -10 -4 -29 -8 -43 -9 -14 0 -25 -4 -25 -8 0 -5
-7 -8 -16 -8 -9 0 -13 5 -9 13 4 6 0 4 -9 -7 -8 -10 -22 -16 -30 -13 -8 3 -17
-1 -20 -9 -3 -9 -10 -13 -14 -10 -5 3 -20 -1 -33 -8 -35 -18 -77 -27 -82 -18
-2 4 -2 1 -1 -6 4 -13 -35 -33 -48 -25 -5 2 -8 -1 -8 -7 0 -7 -7 -9 -16 -6 -8
3 -13 2 -10 -3 8 -12 -22 -23 -37 -14 -7 3 -9 3 -5 -2 10 -10 -99 -78 -112
-70 -5 3 -10 -1 -10 -9 0 -17 5 -18 143 -19 72 0 84 -2 69 -12 -11 -8 -62 -13
-142 -14 -68 -1 -129 -6 -135 -11 -7 -6 -15 -8 -18 -5 -4 3 -5 2 -2 -1 2 -4
-7 -15 -21 -26 -21 -17 -27 -18 -42 -6 -15 12 -16 11 -3 -4 9 -13 10 -18 2
-18 -7 0 -9 -4 -6 -10 3 -5 -5 -12 -19 -16 -14 -3 -24 -9 -23 -13 2 -8 -35
-51 -46 -51 -4 0 -5 5 -1 12 4 7 3 8 -5 4 -6 -4 -9 -12 -6 -17 4 -5 -5 -20
-18 -33 -14 -14 -22 -27 -19 -30 3 -3 0 -7 -6 -7 -33 -4 -37 -6 -34 -18 4 -17
-28 -52 -39 -45 -5 3 -7 -1 -4 -8 3 -7 -5 -24 -17 -38 -13 -14 -31 -39 -40
-55 -11 -19 -24 -29 -35 -27 -14 2 -15 1 -4 -7 12 -8 12 -13 -2 -35 -10 -14
-17 -29 -16 -32 0 -4 -3 -10 -8 -13 -5 -3 -20 -29 -33 -58 -21 -47 -25 -51
-44 -42 -19 9 -19 9 -4 -4 17 -14 15 -57 -3 -57 -5 0 -6 -6 -3 -14 3 -8 -6
-25 -20 -37 -15 -13 -31 -39 -36 -58 -6 -20 -16 -57 -24 -83 -12 -40 -13 -46
-1 -42 11 4 13 -1 9 -22 -3 -16 -11 -32 -17 -36 -8 -5 -8 -8 -1 -8 8 0 8 -15
1 -52 -5 -29 -10 -68 -11 -85 0 -18 -4 -33 -9 -33 -5 0 -4 -7 3 -15 7 -8 8
-15 3 -15 -9 0 -8 -163 2 -187 2 -7 -1 -13 -8 -13 -8 0 -8 -3 2 -9 11 -7 11
-9 0 -14 -10 -4 -10 -6 -1 -6 6 -1 12 -10 12 -22 0 -11 -4 -18 -8 -15 -5 3 -9
-1 -9 -9 0 -8 4 -12 8 -9 10 6 23 -61 14 -75 -3 -6 -1 -11 4 -11 6 0 11 -10
11 -22 0 -53 5 -86 12 -81 8 4 10 -8 11 -54 1 -12 4 -20 8 -18 3 3 12 -17 20
-43 7 -26 12 -47 11 -47 -2 0 8 -22 22 -49 14 -27 23 -53 20 -58 -3 -4 0 -8 6
-8 7 0 9 -7 6 -16 -3 -8 -2 -12 3 -9 5 3 13 -5 17 -17 4 -13 5 -23 3 -23 -2 0
6 -11 18 -25 13 -13 23 -27 23 -32 0 -7 20 -38 99 -157 24 -35 212 -227 261
-266 87 -68 175 -125 187 -121 8 3 11 1 8 -4 -4 -6 29 -10 88 -10 62 0 107 -5
131 -15 20 -8 36 -12 36 -8 0 5 4 2 8 -4 4 -7 24 -14 44 -15 20 -2 35 -6 33
-9 -5 -8 85 -30 96 -24 5 4 9 1 9 -6 0 -7 3 -10 6 -6 3 3 17 2 31 -4 18 -7 22
-6 17 4 -6 9 -5 9 7 1 8 -7 43 -15 78 -18 36 -4 67 -8 69 -11 3 -2 14 0 25 6
14 8 18 8 13 0 -10 -15 7 -14 23 2 11 9 13 9 7 0 -5 -10 10 -13 64 -13 45 0
69 4 65 10 -3 6 -1 10 4 10 6 0 11 -5 11 -11 0 -8 6 -7 17 2 14 12 16 12 8 0
-6 -10 -4 -12 4 -6 11 6 70 14 139 18 6 0 12 3 12 7 0 4 11 5 25 2 18 -3 31 2
41 14 9 11 13 13 9 7 -8 -17 -3 -16 88 10 43 13 74 27 70 32 -4 4 -3 5 4 1 7
-4 29 0 49 9 20 8 48 15 63 15 15 0 33 6 40 12 11 10 13 10 7 1 -6 -10 11 -13
70 -13 61 0 84 4 113 22 20 12 38 26 39 30 2 4 8 8 13 8 16 0 129 93 129 106
0 7 6 11 13 8 15 -6 60 43 52 56 -3 6 0 7 7 5 7 -3 28 10 46 29 32 34 42 53
20 40 -7 -4 -8 -3 -4 5 4 6 11 9 15 6 5 -2 20 9 35 26 27 30 27 31 9 52 -18
22 -18 22 3 4 21 -18 22 -17 43 10 11 15 25 33 30 39 6 7 7 15 4 18 -4 3 -1 6
6 6 8 0 11 7 7 15 -3 9 0 15 10 15 8 0 12 5 9 10 -3 5 -2 10 4 10 12 0 46 60
34 60 -5 0 -3 4 3 8 12 7 74 124 78 145 1 7 8 22 14 35 7 12 14 35 15 51 1 16
5 27 8 25 9 -5 19 22 19 51 0 13 5 27 11 31 6 3 9 15 6 25 -3 11 -1 19 5 19 5
0 7 4 4 8 -2 4 -1 14 4 22 6 9 3 18 -8 27 -15 11 -15 12 -1 8 13 -5 19 8 30
72 15 85 18 397 4 429 -4 10 -7 30 -6 43 2 14 -1 21 -7 17 -6 -3 -14 -2 -17 4
-4 6 -1 9 7 8 9 -2 12 5 10 21 -7 45 -21 71 -41 71 -13 0 -18 7 -18 26 0 15
-4 29 -9 33 -5 3 -11 20 -13 36 -1 17 -6 35 -10 40 -5 6 -11 17 -14 26 -4 13
-1 16 14 12 20 -6 23 4 13 31 -5 14 -9 14 -23 4 -14 -12 -14 -11 -3 4 12 15
11 22 -2 49 -9 18 -16 38 -16 46 0 8 -4 11 -10 8 -6 -3 -7 1 -4 9 3 9 1 16 -5
16 -6 0 -10 5 -9 12 2 7 -2 12 -9 13 -6 0 -15 4 -20 9 -5 5 -3 6 5 2 6 -4 12
-5 12 -3 0 11 -45 89 -62 107 -10 11 -19 23 -21 27 -1 5 -6 7 -10 5 -5 -1 -5
3 -1 9 4 7 -1 18 -10 25 -10 7 -18 16 -19 21 -1 4 -6 7 -12 5 -5 -2 -7 0 -3 3
10 10 -42 76 -53 69 -5 -3 -9 -2 -8 3 4 21 -2 33 -18 33 -9 0 -13 3 -10 7 10
9 -14 34 -26 26 -5 -3 -7 -2 -4 4 7 11 -83 99 -161 159 -26 20 -46 40 -45 44
1 4 -7 5 -19 2 -13 -3 -19 -1 -15 5 4 6 -9 18 -28 27 -21 10 -33 22 -29 28 4
6 3 8 -4 4 -6 -3 -26 3 -44 13 -42 25 -118 61 -129 61 -5 0 -9 4 -9 8 0 4 -20
14 -45 21 -26 8 -42 17 -38 24 3 5 2 7 -4 4 -5 -3 -28 -1 -52 5 -31 8 -41 15
-36 26 4 11 2 12 -8 4 -9 -8 -33 -6 -90 8 -43 11 -106 22 -141 26 -53 5 -64 9
-59 23 4 14 3 14 -5 1 -13 -19 -116 -15 -105 3 5 9 3 9 -8 0 -8 -6 -45 -11
-82 -12 -38 0 -79 -3 -90 -7 -19 -6 -20 -5 -8 10 7 9 11 16 8 16 -2 0 -10 -6
-16 -14z m1652 -1271 c-3 -9 -8 -14 -10 -11 -3 3 -2 9 2 15 9 16 15 13 8 -4z
m24 -174 c0 -11 -5 -18 -9 -15 -4 3 -5 11 -1 19 7 21 12 19 10 -4z m-32 -51
c-3 -5 -12 -10 -18 -10 -7 0 -6 4 3 10 19 12 23 12 15 0z m40 0 c-3 -5 -12
-10 -18 -10 -7 0 -6 4 3 10 19 12 23 12 15 0z m-45 -100 c0 -5 -2 -10 -4 -10
-3 0 -8 5 -11 10 -3 6 -1 10 4 10 6 0 11 -4 11 -10z m4 -58 c3 -5 -1 -9 -9 -9
-8 0 -12 4 -9 9 3 4 7 8 9 8 2 0 6 -4 9 -8z m-31 -177 c-3 -9 -8 -14 -10 -11
-3 3 -2 9 2 15 9 16 15 13 8 -4z m41 -3 c3 -5 -1 -9 -9 -9 -8 0 -12 4 -9 9 3
4 7 8 9 8 2 0 6 -4 9 -8z m-16 -47 c-3 -3 -9 2 -12 12 -6 14 -5 15 5 6 7 -7
10 -15 7 -18z m-43 -34 c3 -5 2 -12 -3 -15 -5 -3 -9 1 -9 9 0 17 3 19 12 6z
m6 -118 c13 -16 12 -17 -3 -4 -17 13 -22 21 -14 21 2 0 10 -8 17 -17z m-28
-78 c-3 -9 -8 -14 -10 -11 -3 3 -2 9 2 15 9 16 15 13 8 -4z m-133 -189 c-7 -7
-13 -7 -20 0 -6 6 -3 10 10 10 13 0 16 -4 10 -10z m-83 -101 c0 -8 -4 -12 -9
-9 -5 3 -6 10 -3 15 9 13 12 11 12 -6z m8 -74 c-9 -8 -36 -10 -30 -2 2 4 11 8
20 8 8 0 13 -3 10 -6z m32 -6 c0 -8 -4 -12 -9 -9 -5 3 -6 10 -3 15 9 13 12 11
12 -6z m-140 -160 c0 -8 -4 -12 -9 -9 -5 3 -6 10 -3 15 9 13 12 11 12 -6z
m-216 -112 c13 -16 12 -17 -3 -4 -10 7 -18 15 -18 17 0 8 8 3 21 -13z m49 1
c0 -8 -19 -13 -24 -6 -3 5 1 9 9 9 8 0 15 -2 15 -3z m-999 -211 c13 -16 12
-17 -3 -4 -17 13 -22 21 -14 21 2 0 10 -8 17 -17z m153 9 c2 -4 -4 -8 -14 -8
-10 0 -16 4 -14 8 3 4 9 8 14 8 5 0 11 -4 14 -8z m41 -22 c-3 -5 -12 -10 -18
-10 -7 0 -6 4 3 10 19 12 23 12 15 0z"/>
<path d="M2275 3300 c-3 -5 -1 -10 4 -10 6 0 11 5 11 10 0 6 -2 10 -4 10 -3 0
-8 -4 -11 -10z"/>
<path d="M1076 3273 c-6 -14 -5 -15 5 -6 7 7 10 15 7 18 -3 3 -9 -2 -12 -12z"/>
<path d="M955 3221 c-3 -5 -2 -12 3 -15 5 -3 9 1 9 9 0 17 -3 19 -12 6z"/>
<path d="M989 3203 c-13 -16 -12 -17 4 -4 9 7 17 15 17 17 0 8 -8 3 -21 -13z"/>
<path d="M980 3166 c0 -2 8 -10 18 -17 15 -13 16 -12 3 4 -13 16 -21 21 -21
13z"/>
<path d="M775 3100 c-3 -5 -1 -10 4 -10 6 0 11 5 11 10 0 6 -2 10 -4 10 -3 0
-8 -4 -11 -10z"/>
<path d="M795 3031 c-3 -5 -2 -12 3 -15 5 -3 9 1 9 9 0 17 -3 19 -12 6z"/>
<path d="M665 3020 c-3 -6 1 -7 9 -4 18 7 21 14 7 14 -6 0 -13 -4 -16 -10z"/>
<path d="M510 2816 c0 -2 8 -10 18 -17 15 -13 16 -12 3 4 -13 16 -21 21 -21
13z"/>
<path d="M458 2778 c-9 -5 -6 -7 9 -5 12 2 25 6 28 8 8 9 -23 6 -37 -3z"/>
<path d="M519 2753 c-13 -16 -12 -17 4 -4 16 13 21 21 13 21 -2 0 -10 -8 -17
-17z"/>
<path d="M420 2726 c0 -2 8 -10 18 -17 15 -13 16 -12 3 4 -13 16 -21 21 -21
13z"/>
<path d="M506 2718 c3 -5 10 -6 15 -3 13 9 11 12 -6 12 -8 0 -12 -4 -9 -9z"/>
<path d="M371 2647 c-13 -21 -12 -21 5 -5 10 10 16 20 13 22 -3 3 -11 -5 -18
-17z"/>
<path d="M350 2616 c0 -2 8 -10 18 -17 15 -13 16 -12 3 4 -13 16 -21 21 -21
13z"/>
<path d="M395 2611 c-3 -5 -2 -12 3 -15 5 -3 9 1 9 9 0 17 -3 19 -12 6z"/>
<path d="M335 2580 c3 -5 8 -10 11 -10 2 0 4 5 4 10 0 6 -5 10 -11 10 -5 0 -7
-4 -4 -10z"/>
<path d="M309 2523 c-13 -16 -12 -17 4 -4 9 7 17 15 17 17 0 8 -8 3 -21 -13z"/>
<path d="M359 2513 c-13 -16 -12 -17 4 -4 9 7 17 15 17 17 0 8 -8 3 -21 -13z"/>
<path d="M313 2445 c0 -8 4 -15 9 -15 4 0 8 4 8 9 0 6 -4 12 -8 15 -5 3 -9 -1
-9 -9z"/>
<path d="M233 2326 c0 -15 22 -15 34 0 4 5 4 6 -1 2 -5 -4 -14 -3 -21 2 -8 7
-12 5 -12 -4z"/>
<path d="M189 2203 c-13 -16 -12 -17 4 -4 9 7 17 15 17 17 0 8 -8 3 -21 -13z"/>
<path d="M215 2171 c-3 -5 -2 -12 3 -15 5 -3 9 1 9 9 0 17 -3 19 -12 6z"/>
<path d="M180 1966 c0 -2 8 -10 18 -17 15 -13 16 -12 3 4 -13 16 -21 21 -21
13z"/>
<path d="M199 1873 c-13 -16 -12 -17 4 -4 9 7 17 15 17 17 0 8 -8 3 -21 -13z"/>
<path d="M186 1838 c3 -4 9 -8 15 -8 5 0 9 4 9 8 0 5 -7 9 -15 9 -8 0 -12 -4
-9 -9z"/>
<path d="M195 1560 c-3 -5 -1 -10 4 -10 6 0 11 5 11 10 0 6 -2 10 -4 10 -3 0
-8 -4 -11 -10z"/>
<path d="M230 1561 c0 -6 4 -13 10 -16 6 -3 7 1 4 9 -7 18 -14 21 -14 7z"/>
<path d="M255 1340 c-3 -5 -1 -10 4 -10 6 0 11 5 11 10 0 6 -2 10 -4 10 -3 0
-8 -4 -11 -10z"/>
<path d="M1418 279 c13 -5 28 -7 33 -3 5 3 9 0 9 -6 0 -6 5 -8 10 -5 22 14 8
25 -32 24 -37 0 -40 -2 -20 -10z"/>
<path d="M1490 276 c0 -14 31 -22 119 -31 24 -2 46 -7 49 -9 2 -3 14 -1 25 5
14 8 18 8 13 0 -4 -6 0 -11 9 -11 10 0 13 5 9 13 -6 9 -4 9 7 1 20 -16 99 -17
117 -1 13 9 14 9 8 0 -4 -7 -2 -13 3 -13 6 0 11 6 11 13 0 9 2 9 9 -1 11 -17
21 -17 32 0 6 9 9 10 9 1 0 -7 6 -10 13 -8 6 2 35 6 62 9 47 6 90 13 90 16 0
1 19 3 41 5 23 3 52 9 65 14 17 7 -19 10 -120 10 -126 1 -146 -1 -157 -16 -12
-15 -13 -15 -8 -2 5 15 -8 17 -110 18 -85 0 -116 -3 -116 -12 0 -8 -3 -9 -8
-1 -4 6 -42 12 -89 12 -65 1 -83 -1 -83 -12z m480 -16 c0 -5 -5 -10 -11 -10
-5 0 -7 5 -4 10 3 6 8 10 11 10 2 0 4 -4 4 -10z"/>
</g>
</svg>
